<svg xmlns="http://www.w3.org/2000/svg" xmlns:xlink="http://www.w3.org/1999/xlink" width="1500" zoomAndPan="magnify" viewBox="0 0 1125 1124.99995" height="1500" preserveAspectRatio="xMidYMid meet" version="1.0"><defs><g/><clipPath id="08090f976d"><path d="M 2.5 0.214844 L 217 0.214844 L 217 216 L 2.5 216 Z M 2.5 0.214844 " clip-rule="nonzero"/></clipPath><clipPath id="47e872766e"><path d="M 688 195 L 901.648438 195 L 901.648438 410.503906 L 688 410.503906 Z M 688 195 " clip-rule="nonzero"/></clipPath><clipPath id="ff461ba6ed"><rect x="0" width="669" y="0" height="132"/></clipPath><clipPath id="5b6af662a0"><rect x="0" width="324" y="0" height="46"/></clipPath><clipPath id="3c15a3503c"><rect x="0" width="904" y="0" height="411"/></clipPath></defs><rect x="-112.5" width="1350" fill="#ffffff" y="-112.499995" height="1349.99994" fill-opacity="1"/><rect x="-112.5" width="1350" fill="#ffffff" y="-112.499995" height="1349.99994" fill-opacity="1"/><g transform="matrix(1, 0, 0, 1, 110, 357)"><g clip-path="url(#3c15a3503c)"><g clip-path="url(#08090f976d)"><path fill="#f2d1d1" d="M 9.921875 215.480469 L 1.050781 215.480469 L 1.050781 0.292969 L 216.234375 0.292969 L 216.234375 9.167969 L 9.921875 9.167969 Z M 9.921875 215.480469 " fill-opacity="1" fill-rule="nonzero"/></g><g clip-path="url(#47e872766e)"><path fill="#f2d1d1" d="M 903.933594 410.695312 L 688.75 410.695312 L 688.75 401.824219 L 895.058594 401.824219 L 895.058594 195.511719 L 903.933594 195.511719 Z M 903.933594 410.695312 " fill-opacity="1" fill-rule="nonzero"/></g><g transform="matrix(1, 0, 0, 1, 118, 109)"><g clip-path="url(#ff461ba6ed)"><g fill="#d76b7e" fill-opacity="1"><g transform="translate(2.82869, 102.924258)"><g><path d="M 13.4375 0 L 13.4375 -78.359375 L 23.625 -78.359375 L 23.625 -6.15625 L 64.03125 -6.15625 L 64.03125 0 Z M 13.4375 0 "/></g></g></g><g fill="#d76b7e" fill-opacity="1"><g transform="translate(70.189127, 102.924258)"><g><path d="M 5.59375 -39.171875 C 5.59375 -34.992188 6.394531 -30.535156 8 -25.796875 C 9.601562 -21.054688 12.117188 -16.671875 15.546875 -12.640625 C 18.984375 -8.617188 23.351562 -5.28125 28.65625 -2.625 C 33.957031 0.0195312 40.300781 1.34375 47.6875 1.34375 C 52.6875 1.34375 57.21875 0.726562 61.28125 -0.5 C 65.351562 -1.726562 69.007812 -3.390625 72.25 -5.484375 C 75.5 -7.578125 78.316406 -9.984375 80.703125 -12.703125 C 83.085938 -15.429688 85.046875 -18.304688 86.578125 -21.328125 C 88.109375 -24.347656 89.265625 -27.382812 90.046875 -30.4375 C 90.835938 -33.5 91.234375 -36.410156 91.234375 -39.171875 C 91.234375 -43.359375 90.375 -47.816406 88.65625 -52.546875 C 86.9375 -57.285156 84.285156 -61.671875 80.703125 -65.703125 C 77.117188 -69.734375 72.582031 -73.070312 67.09375 -75.71875 C 61.613281 -78.375 55.144531 -79.703125 47.6875 -79.703125 C 40.300781 -79.703125 33.957031 -78.394531 28.65625 -75.78125 C 23.351562 -73.164062 18.984375 -69.863281 15.546875 -65.875 C 12.117188 -61.882812 9.601562 -57.5 8 -52.71875 C 6.394531 -47.945312 5.59375 -43.429688 5.59375 -39.171875 Z M 16.5625 -39.171875 C 16.5625 -44.398438 17.363281 -49.195312 18.96875 -53.5625 C 20.570312 -57.925781 22.773438 -61.675781 25.578125 -64.8125 C 28.378906 -67.945312 31.679688 -70.390625 35.484375 -72.140625 C 39.285156 -73.898438 43.425781 -74.78125 47.90625 -74.78125 C 52.3125 -74.78125 56.472656 -73.898438 60.390625 -72.140625 C 64.304688 -70.390625 67.738281 -67.945312 70.6875 -64.8125 C 73.632812 -61.675781 75.96875 -57.925781 77.6875 -53.5625 C 79.40625 -49.195312 80.265625 -44.398438 80.265625 -39.171875 C 80.265625 -33.953125 79.40625 -29.160156 77.6875 -24.796875 C 75.96875 -20.429688 73.632812 -16.679688 70.6875 -13.546875 C 67.738281 -10.410156 64.304688 -7.960938 60.390625 -6.203125 C 56.472656 -4.453125 52.3125 -3.578125 47.90625 -3.578125 C 43.425781 -3.578125 39.285156 -4.453125 35.484375 -6.203125 C 31.679688 -7.960938 28.378906 -10.410156 25.578125 -13.546875 C 22.773438 -16.679688 20.570312 -20.429688 18.96875 -24.796875 C 17.363281 -29.160156 16.5625 -33.953125 16.5625 -39.171875 Z M 16.5625 -39.171875 "/></g></g></g><g fill="#d76b7e" fill-opacity="1"><g transform="translate(166.977833, 102.924258)"><g><path d="M 13.4375 0 L 13.4375 -78.359375 L 23.625 -78.359375 L 23.625 -6.15625 L 64.03125 -6.15625 L 64.03125 0 Z M 13.4375 0 "/></g></g></g><g fill="#d76b7e" fill-opacity="1"><g transform="translate(234.33827, 102.924258)"><g><path d="M 56.96875 -23.0625 L 67.71875 0 L 78.578125 0 L 42.09375 -78.359375 L 36.484375 -78.359375 L 3.359375 0 L 8.5 0 L 18.359375 -23.0625 Z M 54.625 -28.09375 L 20.484375 -28.09375 L 36.609375 -65.8125 L 37.046875 -65.8125 Z M 54.625 -28.09375 "/></g></g></g><g fill="#d76b7e" fill-opacity="1"><g transform="translate(316.245024, 102.924258)"><g/></g></g><g fill="#d76b7e" fill-opacity="1"><g transform="translate(355.408089, 102.924258)"><g><path d="M 13.4375 0 L 41.53125 0 C 46.53125 0 50.742188 -0.648438 54.171875 -1.953125 C 57.609375 -3.265625 60.367188 -4.960938 62.453125 -7.046875 C 64.546875 -9.140625 66.054688 -11.507812 66.984375 -14.15625 C 67.921875 -16.8125 68.390625 -19.476562 68.390625 -22.15625 C 68.390625 -26.414062 67.472656 -29.8125 65.640625 -32.34375 C 63.816406 -34.882812 61.632812 -36.828125 59.09375 -38.171875 C 56.5625 -39.515625 53.953125 -40.410156 51.265625 -40.859375 C 48.578125 -41.304688 46.414062 -41.566406 44.78125 -41.640625 L 44.78125 -42.09375 C 47.382812 -42.09375 49.84375 -42.59375 52.15625 -43.59375 C 54.476562 -44.601562 56.515625 -45.910156 58.265625 -47.515625 C 60.015625 -49.117188 61.410156 -50.984375 62.453125 -53.109375 C 63.503906 -55.234375 64.03125 -57.492188 64.03125 -59.890625 C 64.03125 -61.972656 63.582031 -64.097656 62.6875 -66.265625 C 61.789062 -68.429688 60.425781 -70.410156 58.59375 -72.203125 C 56.769531 -73.992188 54.421875 -75.46875 51.546875 -76.625 C 48.671875 -77.78125 45.296875 -78.359375 41.421875 -78.359375 L 13.4375 -78.359375 Z M 23.625 -4.921875 L 23.625 -39.171875 L 35.9375 -39.171875 C 39.59375 -39.171875 42.757812 -38.6875 45.4375 -37.71875 C 48.125 -36.75 50.34375 -35.441406 52.09375 -33.796875 C 53.851562 -32.160156 55.160156 -30.257812 56.015625 -28.09375 C 56.878906 -25.925781 57.3125 -23.648438 57.3125 -21.265625 C 57.3125 -18.648438 56.84375 -16.335938 55.90625 -14.328125 C 54.976562 -12.316406 53.726562 -10.597656 52.15625 -9.171875 C 50.59375 -7.753906 48.75 -6.691406 46.625 -5.984375 C 44.5 -5.273438 42.238281 -4.921875 39.84375 -4.921875 Z M 23.625 -44.109375 L 23.625 -73.4375 L 37.28125 -73.4375 C 40.1875 -73.4375 42.664062 -73.023438 44.71875 -72.203125 C 46.769531 -71.378906 48.445312 -70.296875 49.75 -68.953125 C 51.0625 -67.609375 52.015625 -66.078125 52.609375 -64.359375 C 53.203125 -62.648438 53.5 -60.9375 53.5 -59.21875 C 53.5 -57.050781 53.070312 -55.035156 52.21875 -53.171875 C 51.363281 -51.304688 50.171875 -49.703125 48.640625 -48.359375 C 47.109375 -47.015625 45.351562 -45.96875 43.375 -45.21875 C 41.394531 -44.476562 39.285156 -44.109375 37.046875 -44.109375 Z M 23.625 -44.109375 "/></g></g></g><g fill="#d76b7e" fill-opacity="1"><g transform="translate(429.370303, 102.924258)"><g><path d="M 5.59375 -39.171875 C 5.59375 -34.992188 6.394531 -30.535156 8 -25.796875 C 9.601562 -21.054688 12.117188 -16.671875 15.546875 -12.640625 C 18.984375 -8.617188 23.351562 -5.28125 28.65625 -2.625 C 33.957031 0.0195312 40.300781 1.34375 47.6875 1.34375 C 52.6875 1.34375 57.21875 0.726562 61.28125 -0.5 C 65.351562 -1.726562 69.007812 -3.390625 72.25 -5.484375 C 75.5 -7.578125 78.316406 -9.984375 80.703125 -12.703125 C 83.085938 -15.429688 85.046875 -18.304688 86.578125 -21.328125 C 88.109375 -24.347656 89.265625 -27.382812 90.046875 -30.4375 C 90.835938 -33.5 91.234375 -36.410156 91.234375 -39.171875 C 91.234375 -43.359375 90.375 -47.816406 88.65625 -52.546875 C 86.9375 -57.285156 84.285156 -61.671875 80.703125 -65.703125 C 77.117188 -69.734375 72.582031 -73.070312 67.09375 -75.71875 C 61.613281 -78.375 55.144531 -79.703125 47.6875 -79.703125 C 40.300781 -79.703125 33.957031 -78.394531 28.65625 -75.78125 C 23.351562 -73.164062 18.984375 -69.863281 15.546875 -65.875 C 12.117188 -61.882812 9.601562 -57.5 8 -52.71875 C 6.394531 -47.945312 5.59375 -43.429688 5.59375 -39.171875 Z M 16.5625 -39.171875 C 16.5625 -44.398438 17.363281 -49.195312 18.96875 -53.5625 C 20.570312 -57.925781 22.773438 -61.675781 25.578125 -64.8125 C 28.378906 -67.945312 31.679688 -70.390625 35.484375 -72.140625 C 39.285156 -73.898438 43.425781 -74.78125 47.90625 -74.78125 C 52.3125 -74.78125 56.472656 -73.898438 60.390625 -72.140625 C 64.304688 -70.390625 67.738281 -67.945312 70.6875 -64.8125 C 73.632812 -61.675781 75.96875 -57.925781 77.6875 -53.5625 C 79.40625 -49.195312 80.265625 -44.398438 80.265625 -39.171875 C 80.265625 -33.953125 79.40625 -29.160156 77.6875 -24.796875 C 75.96875 -20.429688 73.632812 -16.679688 70.6875 -13.546875 C 67.738281 -10.410156 64.304688 -7.960938 60.390625 -6.203125 C 56.472656 -4.453125 52.3125 -3.578125 47.90625 -3.578125 C 43.425781 -3.578125 39.285156 -4.453125 35.484375 -6.203125 C 31.679688 -7.960938 28.378906 -10.410156 25.578125 -13.546875 C 22.773438 -16.679688 20.570312 -20.429688 18.96875 -24.796875 C 17.363281 -29.160156 16.5625 -33.953125 16.5625 -39.171875 Z M 16.5625 -39.171875 "/></g></g></g><g fill="#d76b7e" fill-opacity="1"><g transform="translate(526.159009, 102.924258)"><g><path d="M 4.140625 -19.8125 C 4.285156 -16.601562 5.125 -13.691406 6.65625 -11.078125 C 8.1875 -8.460938 10.273438 -6.238281 12.921875 -4.40625 C 15.578125 -2.582031 18.695312 -1.164062 22.28125 -0.15625 C 25.863281 0.84375 29.78125 1.34375 34.03125 1.34375 C 38.351562 1.34375 42.25 0.820312 45.71875 -0.21875 C 49.195312 -1.269531 52.164062 -2.765625 54.625 -4.703125 C 57.082031 -6.640625 58.984375 -8.988281 60.328125 -11.75 C 61.671875 -14.507812 62.34375 -17.570312 62.34375 -20.9375 C 62.34375 -25.5625 61.1875 -29.347656 58.875 -32.296875 C 56.5625 -35.242188 53.671875 -37.703125 50.203125 -39.671875 C 46.734375 -41.648438 42.960938 -43.3125 38.890625 -44.65625 C 34.828125 -46 31.0625 -47.414062 27.59375 -48.90625 C 24.125 -50.40625 21.234375 -52.125 18.921875 -54.0625 C 16.609375 -56 15.453125 -58.578125 15.453125 -61.796875 C 15.453125 -63.578125 15.84375 -65.25 16.625 -66.8125 C 17.40625 -68.382812 18.5625 -69.75 20.09375 -70.90625 C 21.625 -72.0625 23.507812 -72.992188 25.75 -73.703125 C 27.988281 -74.421875 30.5625 -74.78125 33.46875 -74.78125 C 38.320312 -74.78125 42.445312 -73.753906 45.84375 -71.703125 C 49.238281 -69.648438 51.234375 -66.421875 51.828125 -62.015625 L 59.4375 -62.015625 C 58.988281 -64.773438 57.976562 -67.253906 56.40625 -69.453125 C 54.84375 -71.660156 52.867188 -73.523438 50.484375 -75.046875 C 48.097656 -76.578125 45.390625 -77.734375 42.359375 -78.515625 C 39.335938 -79.304688 36.1875 -79.703125 32.90625 -79.703125 C 29.476562 -79.703125 26.210938 -79.253906 23.109375 -78.359375 C 20.015625 -77.460938 17.289062 -76.15625 14.9375 -74.4375 C 12.59375 -72.71875 10.726562 -70.550781 9.34375 -67.9375 C 7.96875 -65.332031 7.28125 -62.347656 7.28125 -58.984375 C 7.28125 -54.585938 8.398438 -51.046875 10.640625 -48.359375 C 12.878906 -45.671875 15.691406 -43.429688 19.078125 -41.640625 C 22.472656 -39.847656 26.148438 -38.316406 30.109375 -37.046875 C 34.066406 -35.773438 37.742188 -34.335938 41.140625 -32.734375 C 44.535156 -31.128906 47.351562 -29.171875 49.59375 -26.859375 C 51.832031 -24.546875 52.953125 -21.453125 52.953125 -17.578125 C 52.953125 -12.722656 51.175781 -9.175781 47.625 -6.9375 C 44.082031 -4.695312 39.363281 -3.578125 33.46875 -3.578125 C 28.769531 -3.578125 25 -4.191406 22.15625 -5.421875 C 19.320312 -6.660156 17.160156 -8.132812 15.671875 -9.84375 C 14.179688 -11.5625 13.171875 -13.332031 12.640625 -15.15625 C 12.117188 -16.988281 11.820312 -18.539062 11.75 -19.8125 Z M 4.140625 -19.8125 "/></g></g></g><g fill="#d76b7e" fill-opacity="1"><g transform="translate(596.093052, 102.924258)"><g><path d="M 4.140625 -19.8125 C 4.285156 -16.601562 5.125 -13.691406 6.65625 -11.078125 C 8.1875 -8.460938 10.273438 -6.238281 12.921875 -4.40625 C 15.578125 -2.582031 18.695312 -1.164062 22.28125 -0.15625 C 25.863281 0.84375 29.78125 1.34375 34.03125 1.34375 C 38.351562 1.34375 42.25 0.820312 45.71875 -0.21875 C 49.195312 -1.269531 52.164062 -2.765625 54.625 -4.703125 C 57.082031 -6.640625 58.984375 -8.988281 60.328125 -11.75 C 61.671875 -14.507812 62.34375 -17.570312 62.34375 -20.9375 C 62.34375 -25.5625 61.1875 -29.347656 58.875 -32.296875 C 56.5625 -35.242188 53.671875 -37.703125 50.203125 -39.671875 C 46.734375 -41.648438 42.960938 -43.3125 38.890625 -44.65625 C 34.828125 -46 31.0625 -47.414062 27.59375 -48.90625 C 24.125 -50.40625 21.234375 -52.125 18.921875 -54.0625 C 16.609375 -56 15.453125 -58.578125 15.453125 -61.796875 C 15.453125 -63.578125 15.84375 -65.25 16.625 -66.8125 C 17.40625 -68.382812 18.5625 -69.75 20.09375 -70.90625 C 21.625 -72.0625 23.507812 -72.992188 25.75 -73.703125 C 27.988281 -74.421875 30.5625 -74.78125 33.46875 -74.78125 C 38.320312 -74.78125 42.445312 -73.753906 45.84375 -71.703125 C 49.238281 -69.648438 51.234375 -66.421875 51.828125 -62.015625 L 59.4375 -62.015625 C 58.988281 -64.773438 57.976562 -67.253906 56.40625 -69.453125 C 54.84375 -71.660156 52.867188 -73.523438 50.484375 -75.046875 C 48.097656 -76.578125 45.390625 -77.734375 42.359375 -78.515625 C 39.335938 -79.304688 36.1875 -79.703125 32.90625 -79.703125 C 29.476562 -79.703125 26.210938 -79.253906 23.109375 -78.359375 C 20.015625 -77.460938 17.289062 -76.15625 14.9375 -74.4375 C 12.59375 -72.71875 10.726562 -70.550781 9.34375 -67.9375 C 7.96875 -65.332031 7.28125 -62.347656 7.28125 -58.984375 C 7.28125 -54.585938 8.398438 -51.046875 10.640625 -48.359375 C 12.878906 -45.671875 15.691406 -43.429688 19.078125 -41.640625 C 22.472656 -39.847656 26.148438 -38.316406 30.109375 -37.046875 C 34.066406 -35.773438 37.742188 -34.335938 41.140625 -32.734375 C 44.535156 -31.128906 47.351562 -29.171875 49.59375 -26.859375 C 51.832031 -24.546875 52.953125 -21.453125 52.953125 -17.578125 C 52.953125 -12.722656 51.175781 -9.175781 47.625 -6.9375 C 44.082031 -4.695312 39.363281 -3.578125 33.46875 -3.578125 C 28.769531 -3.578125 25 -4.191406 22.15625 -5.421875 C 19.320312 -6.660156 17.160156 -8.132812 15.671875 -9.84375 C 14.179688 -11.5625 13.171875 -13.332031 12.640625 -15.15625 C 12.117188 -16.988281 11.820312 -18.539062 11.75 -19.8125 Z M 4.140625 -19.8125 "/></g></g></g></g></g><g transform="matrix(1, 0, 0, 1, 293, 254)"><g clip-path="url(#5b6af662a0)"><g fill="#d76b7e" fill-opacity="1"><g transform="translate(0.564376, 33.74722)"><g><path d="M 14.109375 0.375 C 12.398438 0.375 10.867188 0.140625 9.515625 -0.328125 C 8.160156 -0.796875 6.976562 -1.445312 5.96875 -2.28125 C 4.96875 -3.113281 4.132812 -4.09375 3.46875 -5.21875 C 2.8125 -6.34375 2.320312 -7.566406 2 -8.890625 C 1.675781 -10.222656 1.515625 -11.597656 1.515625 -13.015625 C 1.515625 -14.441406 1.675781 -15.816406 2 -17.140625 C 2.320312 -18.472656 2.8125 -19.695312 3.46875 -20.8125 C 4.125 -21.9375 4.945312 -22.921875 5.9375 -23.765625 C 6.9375 -24.617188 8.113281 -25.28125 9.46875 -25.75 C 10.832031 -26.21875 12.367188 -26.453125 14.078125 -26.453125 C 15.796875 -26.453125 17.382812 -26.164062 18.84375 -25.59375 C 20.300781 -25.019531 21.59375 -24.175781 22.71875 -23.0625 C 23.84375 -21.957031 24.753906 -20.59375 25.453125 -18.96875 L 21.09375 -17.234375 C 20.769531 -18.378906 20.265625 -19.296875 19.578125 -19.984375 C 18.898438 -20.679688 18.085938 -21.1875 17.140625 -21.5 C 16.203125 -21.820312 15.164062 -21.984375 14.03125 -21.984375 C 12.65625 -21.984375 11.46875 -21.753906 10.46875 -21.296875 C 9.476562 -20.847656 8.664062 -20.21875 8.03125 -19.40625 C 7.394531 -18.601562 6.921875 -17.671875 6.609375 -16.609375 C 6.304688 -15.546875 6.15625 -14.410156 6.15625 -13.203125 C 6.15625 -11.910156 6.304688 -10.707031 6.609375 -9.59375 C 6.921875 -8.488281 7.394531 -7.519531 8.03125 -6.6875 C 8.675781 -5.863281 9.5 -5.21875 10.5 -4.75 C 11.507812 -4.289062 12.710938 -4.0625 14.109375 -4.0625 C 15.785156 -4.0625 17.203125 -4.429688 18.359375 -5.171875 C 19.523438 -5.910156 20.457031 -7.148438 21.15625 -8.890625 L 25.484375 -7.125 C 24.796875 -5.507812 23.890625 -4.144531 22.765625 -3.03125 C 21.648438 -1.914062 20.359375 -1.066406 18.890625 -0.484375 C 17.429688 0.0859375 15.835938 0.375 14.109375 0.375 Z M 14.109375 0.375 "/></g></g></g><g fill="#d76b7e" fill-opacity="1"><g transform="translate(31.081236, 33.74722)"><g><path d="M 2.671875 0 L 2.671875 -18.40625 L 7.046875 -18.40625 L 7.046875 -15.3125 C 7.316406 -16.050781 7.707031 -16.675781 8.21875 -17.1875 C 8.726562 -17.707031 9.3125 -18.101562 9.96875 -18.375 C 10.625 -18.644531 11.296875 -18.78125 11.984375 -18.78125 C 12.597656 -18.78125 13.203125 -18.671875 13.796875 -18.453125 C 14.398438 -18.242188 14.921875 -17.910156 15.359375 -17.453125 L 13.3125 -13.78125 C 12.6875 -14.195312 12.019531 -14.40625 11.3125 -14.40625 C 10.78125 -14.40625 10.257812 -14.273438 9.75 -14.015625 C 9.238281 -13.765625 8.773438 -13.375 8.359375 -12.84375 C 7.953125 -12.3125 7.625 -11.625 7.375 -10.78125 C 7.132812 -9.9375 7.015625 -8.929688 7.015625 -7.765625 L 7.015625 0 Z M 2.671875 0 "/></g></g></g><g fill="#d76b7e" fill-opacity="1"><g transform="translate(50.237386, 33.74722)"><g><path d="M 10.328125 0.375 C 8.742188 0.375 7.367188 0.117188 6.203125 -0.390625 C 5.035156 -0.910156 4.066406 -1.617188 3.296875 -2.515625 C 2.523438 -3.421875 1.953125 -4.441406 1.578125 -5.578125 C 1.203125 -6.710938 1.015625 -7.898438 1.015625 -9.140625 C 1.015625 -10.335938 1.191406 -11.503906 1.546875 -12.640625 C 1.898438 -13.785156 2.445312 -14.820312 3.1875 -15.75 C 3.925781 -16.675781 4.863281 -17.410156 6 -17.953125 C 7.132812 -18.503906 8.476562 -18.78125 10.03125 -18.78125 C 11.320312 -18.78125 12.441406 -18.59375 13.390625 -18.21875 C 14.347656 -17.84375 15.15625 -17.335938 15.8125 -16.703125 C 16.476562 -16.066406 17.015625 -15.34375 17.421875 -14.53125 C 17.828125 -13.726562 18.117188 -12.894531 18.296875 -12.03125 C 18.472656 -11.164062 18.5625 -10.320312 18.5625 -9.5 C 18.5625 -9.125 18.546875 -8.769531 18.515625 -8.4375 C 18.484375 -8.101562 18.445312 -7.867188 18.40625 -7.734375 L 5.765625 -7.734375 C 5.898438 -6.929688 6.140625 -6.226562 6.484375 -5.625 C 6.835938 -5.019531 7.332031 -4.546875 7.96875 -4.203125 C 8.613281 -3.867188 9.414062 -3.703125 10.375 -3.703125 C 11.207031 -3.703125 11.988281 -3.847656 12.71875 -4.140625 C 13.457031 -4.429688 14.148438 -4.9375 14.796875 -5.65625 L 17.890625 -2.953125 C 16.878906 -1.828125 15.753906 -0.988281 14.515625 -0.4375 C 13.273438 0.101562 11.878906 0.375 10.328125 0.375 Z M 5.765625 -10.984375 L 14.140625 -10.984375 C 13.992188 -12.296875 13.554688 -13.296875 12.828125 -13.984375 C 12.109375 -14.671875 11.164062 -15.015625 10 -15.015625 C 9.113281 -15.015625 8.382812 -14.835938 7.8125 -14.484375 C 7.25 -14.128906 6.800781 -13.648438 6.46875 -13.046875 C 6.144531 -12.441406 5.910156 -11.753906 5.765625 -10.984375 Z M 5.765625 -10.984375 "/></g></g></g><g fill="#d76b7e" fill-opacity="1"><g transform="translate(74.033566, 33.74722)"><g><path d="M 7.703125 0.375 C 6.441406 0.375 5.304688 0.140625 4.296875 -0.328125 C 3.285156 -0.796875 2.484375 -1.476562 1.890625 -2.375 C 1.304688 -3.28125 1.015625 -4.375 1.015625 -5.65625 C 1.015625 -6.644531 1.203125 -7.476562 1.578125 -8.15625 C 1.953125 -8.84375 2.46875 -9.390625 3.125 -9.796875 C 3.789062 -10.210938 4.566406 -10.515625 5.453125 -10.703125 C 6.347656 -10.890625 7.3125 -10.984375 8.34375 -10.984375 L 13.125 -10.984375 C 13.125 -12.140625 12.816406 -13.070312 12.203125 -13.78125 C 11.597656 -14.5 10.695312 -14.859375 9.5 -14.859375 C 8.800781 -14.859375 8.171875 -14.734375 7.609375 -14.484375 C 7.054688 -14.242188 6.578125 -13.925781 6.171875 -13.53125 C 5.773438 -13.144531 5.441406 -12.722656 5.171875 -12.265625 L 1.734375 -14.75 C 2.316406 -15.5625 2.976562 -16.265625 3.71875 -16.859375 C 4.457031 -17.460938 5.296875 -17.929688 6.234375 -18.265625 C 7.179688 -18.609375 8.257812 -18.78125 9.46875 -18.78125 C 11.132812 -18.78125 12.5625 -18.457031 13.75 -17.8125 C 14.9375 -17.175781 15.84375 -16.28125 16.46875 -15.125 C 17.101562 -13.976562 17.421875 -12.65625 17.421875 -11.15625 L 17.421875 0 L 13.71875 0 L 13.421875 -2.640625 C 12.640625 -1.484375 11.765625 -0.691406 10.796875 -0.265625 C 9.828125 0.160156 8.796875 0.375 7.703125 0.375 Z M 8.34375 -3.421875 C 8.976562 -3.421875 9.582031 -3.535156 10.15625 -3.765625 C 10.726562 -3.992188 11.234375 -4.3125 11.671875 -4.71875 C 12.109375 -5.125 12.457031 -5.582031 12.71875 -6.09375 C 12.976562 -6.613281 13.113281 -7.160156 13.125 -7.734375 L 8.59375 -7.734375 C 7.582031 -7.734375 6.832031 -7.503906 6.34375 -7.046875 C 5.863281 -6.597656 5.625 -6.082031 5.625 -5.5 C 5.625 -4.90625 5.859375 -4.410156 6.328125 -4.015625 C 6.796875 -3.617188 7.46875 -3.421875 8.34375 -3.421875 Z M 8.34375 -3.421875 "/></g></g></g><g fill="#d76b7e" fill-opacity="1"><g transform="translate(97.71927, 33.74722)"><g><path d="M 9.203125 0.375 C 8.003906 0.375 6.972656 0.15625 6.109375 -0.28125 C 5.242188 -0.726562 4.578125 -1.359375 4.109375 -2.171875 C 3.648438 -2.992188 3.421875 -3.960938 3.421875 -5.078125 L 3.421875 -14.640625 L 0.453125 -14.640625 L 0.453125 -18.40625 L 3.5 -18.40625 L 3.5 -22.96875 L 7.875 -26.171875 L 7.875 -18.40625 L 12.53125 -18.40625 L 12.53125 -14.640625 L 7.875 -14.640625 L 7.875 -5.875 C 7.875 -4.988281 8.070312 -4.382812 8.46875 -4.0625 C 8.875 -3.75 9.375 -3.59375 9.96875 -3.59375 C 10.425781 -3.59375 10.890625 -3.664062 11.359375 -3.8125 C 11.828125 -3.957031 12.21875 -4.101562 12.53125 -4.25 L 12.53125 -0.1875 C 12.1875 -0.0625 11.707031 0.0625 11.09375 0.1875 C 10.476562 0.3125 9.847656 0.375 9.203125 0.375 Z M 9.203125 0.375 "/></g></g></g><g fill="#d76b7e" fill-opacity="1"><g transform="translate(115.752238, 33.74722)"><g><path d="M 2.5625 -21.875 L 2.5625 -26.03125 L 7.234375 -26.03125 L 7.234375 -21.875 Z M 2.671875 0 L 2.671875 -18.40625 L 7.125 -18.40625 L 7.125 0 Z M 2.671875 0 "/></g></g></g><g fill="#d76b7e" fill-opacity="1"><g transform="translate(129.69756, 33.74722)"><g><path d="M 7.34375 0 L -0.140625 -18.40625 L 4.75 -18.40625 L 9.203125 -5.796875 L 13.6875 -18.40625 L 18.5625 -18.40625 L 11.046875 0 Z M 7.34375 0 "/></g></g></g><g fill="#d76b7e" fill-opacity="1"><g transform="translate(152.241668, 33.74722)"><g><path d="M 10.328125 0.375 C 8.742188 0.375 7.367188 0.117188 6.203125 -0.390625 C 5.035156 -0.910156 4.066406 -1.617188 3.296875 -2.515625 C 2.523438 -3.421875 1.953125 -4.441406 1.578125 -5.578125 C 1.203125 -6.710938 1.015625 -7.898438 1.015625 -9.140625 C 1.015625 -10.335938 1.191406 -11.503906 1.546875 -12.640625 C 1.898438 -13.785156 2.445312 -14.820312 3.1875 -15.75 C 3.925781 -16.675781 4.863281 -17.410156 6 -17.953125 C 7.132812 -18.503906 8.476562 -18.78125 10.03125 -18.78125 C 11.320312 -18.78125 12.441406 -18.59375 13.390625 -18.21875 C 14.347656 -17.84375 15.15625 -17.335938 15.8125 -16.703125 C 16.476562 -16.066406 17.015625 -15.34375 17.421875 -14.53125 C 17.828125 -13.726562 18.117188 -12.894531 18.296875 -12.03125 C 18.472656 -11.164062 18.5625 -10.320312 18.5625 -9.5 C 18.5625 -9.125 18.546875 -8.769531 18.515625 -8.4375 C 18.484375 -8.101562 18.445312 -7.867188 18.40625 -7.734375 L 5.765625 -7.734375 C 5.898438 -6.929688 6.140625 -6.226562 6.484375 -5.625 C 6.835938 -5.019531 7.332031 -4.546875 7.96875 -4.203125 C 8.613281 -3.867188 9.414062 -3.703125 10.375 -3.703125 C 11.207031 -3.703125 11.988281 -3.847656 12.71875 -4.140625 C 13.457031 -4.429688 14.148438 -4.9375 14.796875 -5.65625 L 17.890625 -2.953125 C 16.878906 -1.828125 15.753906 -0.988281 14.515625 -0.4375 C 13.273438 0.101562 11.878906 0.375 10.328125 0.375 Z M 5.765625 -10.984375 L 14.140625 -10.984375 C 13.992188 -12.296875 13.554688 -13.296875 12.828125 -13.984375 C 12.109375 -14.671875 11.164062 -15.015625 10 -15.015625 C 9.113281 -15.015625 8.382812 -14.835938 7.8125 -14.484375 C 7.25 -14.128906 6.800781 -13.648438 6.46875 -13.046875 C 6.144531 -12.441406 5.910156 -11.753906 5.765625 -10.984375 Z M 5.765625 -10.984375 "/></g></g></g><g fill="#d76b7e" fill-opacity="1"><g transform="translate(176.037849, 33.74722)"><g/></g></g><g fill="#d76b7e" fill-opacity="1"><g transform="translate(189.246657, 33.74722)"><g><path d="M 10.796875 0.296875 C 9.640625 0.296875 8.507812 0.140625 7.40625 -0.171875 C 6.3125 -0.492188 5.304688 -0.972656 4.390625 -1.609375 C 3.472656 -2.242188 2.703125 -3.039062 2.078125 -4 C 1.453125 -4.957031 1.035156 -6.070312 0.828125 -7.34375 L 5.46875 -8.53125 C 5.582031 -7.445312 5.894531 -6.5625 6.40625 -5.875 C 6.914062 -5.1875 7.554688 -4.675781 8.328125 -4.34375 C 9.097656 -4.007812 9.941406 -3.84375 10.859375 -3.84375 C 11.796875 -3.84375 12.578125 -3.988281 13.203125 -4.28125 C 13.835938 -4.582031 14.320312 -4.984375 14.65625 -5.484375 C 14.988281 -5.992188 15.15625 -6.554688 15.15625 -7.171875 C 15.15625 -7.835938 14.976562 -8.410156 14.625 -8.890625 C 14.269531 -9.367188 13.789062 -9.78125 13.1875 -10.125 C 12.59375 -10.476562 11.921875 -10.804688 11.171875 -11.109375 C 10.429688 -11.410156 9.660156 -11.71875 8.859375 -12.03125 C 8.054688 -12.34375 7.28125 -12.695312 6.53125 -13.09375 C 5.789062 -13.5 5.117188 -13.972656 4.515625 -14.515625 C 3.921875 -15.066406 3.445312 -15.722656 3.09375 -16.484375 C 2.738281 -17.253906 2.5625 -18.171875 2.5625 -19.234375 C 2.5625 -20.378906 2.773438 -21.394531 3.203125 -22.28125 C 3.628906 -23.175781 4.21875 -23.929688 4.96875 -24.546875 C 5.726562 -25.160156 6.597656 -25.625 7.578125 -25.9375 C 8.554688 -26.25 9.59375 -26.40625 10.6875 -26.40625 C 12.289062 -26.40625 13.785156 -26.039062 15.171875 -25.3125 C 16.554688 -24.582031 17.695312 -23.425781 18.59375 -21.84375 L 14.71875 -19.46875 C 14.257812 -20.351562 13.660156 -21.035156 12.921875 -21.515625 C 12.191406 -22.003906 11.390625 -22.25 10.515625 -22.25 C 9.898438 -22.25 9.34375 -22.128906 8.84375 -21.890625 C 8.351562 -21.660156 7.960938 -21.335938 7.671875 -20.921875 C 7.378906 -20.503906 7.234375 -20.019531 7.234375 -19.46875 C 7.234375 -18.851562 7.410156 -18.328125 7.765625 -17.890625 C 8.128906 -17.453125 8.609375 -17.070312 9.203125 -16.75 C 9.796875 -16.425781 10.46875 -16.117188 11.21875 -15.828125 C 11.96875 -15.535156 12.738281 -15.234375 13.53125 -14.921875 C 14.332031 -14.609375 15.109375 -14.25 15.859375 -13.84375 C 16.609375 -13.4375 17.28125 -12.953125 17.875 -12.390625 C 18.46875 -11.835938 18.941406 -11.164062 19.296875 -10.375 C 19.648438 -9.59375 19.828125 -8.664062 19.828125 -7.59375 C 19.828125 -6.363281 19.59375 -5.257812 19.125 -4.28125 C 18.65625 -3.300781 18.003906 -2.472656 17.171875 -1.796875 C 16.347656 -1.117188 15.390625 -0.597656 14.296875 -0.234375 C 13.203125 0.117188 12.035156 0.296875 10.796875 0.296875 Z M 10.796875 0.296875 "/></g></g></g><g fill="#d76b7e" fill-opacity="1"><g transform="translate(214.331736, 33.74722)"><g><path d="M 9.203125 0.375 C 8.003906 0.375 6.972656 0.15625 6.109375 -0.28125 C 5.242188 -0.726562 4.578125 -1.359375 4.109375 -2.171875 C 3.648438 -2.992188 3.421875 -3.960938 3.421875 -5.078125 L 3.421875 -14.640625 L 0.453125 -14.640625 L 0.453125 -18.40625 L 3.5 -18.40625 L 3.5 -22.96875 L 7.875 -26.171875 L 7.875 -18.40625 L 12.53125 -18.40625 L 12.53125 -14.640625 L 7.875 -14.640625 L 7.875 -5.875 C 7.875 -4.988281 8.070312 -4.382812 8.46875 -4.0625 C 8.875 -3.75 9.375 -3.59375 9.96875 -3.59375 C 10.425781 -3.59375 10.890625 -3.664062 11.359375 -3.8125 C 11.828125 -3.957031 12.21875 -4.101562 12.53125 -4.25 L 12.53125 -0.1875 C 12.1875 -0.0625 11.707031 0.0625 11.09375 0.1875 C 10.476562 0.3125 9.847656 0.375 9.203125 0.375 Z M 9.203125 0.375 "/></g></g></g><g fill="#d76b7e" fill-opacity="1"><g transform="translate(232.364716, 33.74722)"><g><path d="M 8.828125 0.375 C 7.273438 0.375 6.003906 0.00390625 5.015625 -0.734375 C 4.023438 -1.484375 3.296875 -2.539062 2.828125 -3.90625 C 2.359375 -5.269531 2.125 -6.875 2.125 -8.71875 L 2.125 -18.40625 L 6.671875 -18.40625 L 6.671875 -8.5625 C 6.671875 -7.550781 6.757812 -6.679688 6.9375 -5.953125 C 7.113281 -5.234375 7.441406 -4.675781 7.921875 -4.28125 C 8.398438 -3.894531 9.09375 -3.703125 10 -3.703125 C 10.53125 -3.703125 11.046875 -3.785156 11.546875 -3.953125 C 12.046875 -4.128906 12.5 -4.445312 12.90625 -4.90625 C 13.320312 -5.363281 13.648438 -6.015625 13.890625 -6.859375 C 14.128906 -7.703125 14.25 -8.785156 14.25 -10.109375 L 14.25 -18.40625 L 18.828125 -18.40625 L 18.828125 0 L 14.25 0 L 14.25 -2.15625 C 13.59375 -1.289062 12.796875 -0.648438 11.859375 -0.234375 C 10.929688 0.171875 9.921875 0.375 8.828125 0.375 Z M 8.828125 0.375 "/></g></g></g><g fill="#d76b7e" fill-opacity="1"><g transform="translate(258.002153, 33.74722)"><g><path d="M 14.296875 -26.03125 L 18.859375 -26.03125 L 18.859375 0 L 14.671875 0 L 14.46875 -2.0625 C 13.832031 -1.207031 13.035156 -0.585938 12.078125 -0.203125 C 11.128906 0.179688 10.148438 0.375 9.140625 0.375 C 7.847656 0.375 6.703125 0.117188 5.703125 -0.390625 C 4.710938 -0.898438 3.878906 -1.597656 3.203125 -2.484375 C 2.523438 -3.378906 2.015625 -4.398438 1.671875 -5.546875 C 1.328125 -6.703125 1.15625 -7.921875 1.15625 -9.203125 C 1.15625 -10.484375 1.328125 -11.695312 1.671875 -12.84375 C 2.015625 -13.988281 2.519531 -15.003906 3.1875 -15.890625 C 3.863281 -16.785156 4.691406 -17.488281 5.671875 -18 C 6.648438 -18.519531 7.78125 -18.78125 9.0625 -18.78125 C 10.019531 -18.78125 10.96875 -18.609375 11.90625 -18.265625 C 12.851562 -17.921875 13.648438 -17.351562 14.296875 -16.5625 Z M 10.21875 -3.703125 C 11.25 -3.703125 12.09375 -3.941406 12.75 -4.421875 C 13.40625 -4.910156 13.890625 -5.566406 14.203125 -6.390625 C 14.515625 -7.222656 14.671875 -8.160156 14.671875 -9.203125 C 14.671875 -10.234375 14.515625 -11.160156 14.203125 -11.984375 C 13.890625 -12.816406 13.40625 -13.476562 12.75 -13.96875 C 12.09375 -14.46875 11.25 -14.71875 10.21875 -14.71875 C 9.1875 -14.71875 8.335938 -14.46875 7.671875 -13.96875 C 7.015625 -13.476562 6.523438 -12.816406 6.203125 -11.984375 C 5.890625 -11.148438 5.734375 -10.222656 5.734375 -9.203125 C 5.734375 -8.171875 5.890625 -7.238281 6.203125 -6.40625 C 6.523438 -5.570312 7.015625 -4.910156 7.671875 -4.421875 C 8.335938 -3.941406 9.1875 -3.703125 10.21875 -3.703125 Z M 10.21875 -3.703125 "/></g></g></g><g fill="#d76b7e" fill-opacity="1"><g transform="translate(283.713294, 33.74722)"><g><path d="M 2.5625 -21.875 L 2.5625 -26.03125 L 7.234375 -26.03125 L 7.234375 -21.875 Z M 2.671875 0 L 2.671875 -18.40625 L 7.125 -18.40625 L 7.125 0 Z M 2.671875 0 "/></g></g></g><g fill="#d76b7e" fill-opacity="1"><g transform="translate(297.658602, 33.74722)"><g><path d="M 10.375 0.375 C 8.945312 0.375 7.65625 0.117188 6.5 -0.390625 C 5.34375 -0.898438 4.347656 -1.597656 3.515625 -2.484375 C 2.691406 -3.367188 2.054688 -4.390625 1.609375 -5.546875 C 1.160156 -6.710938 0.9375 -7.945312 0.9375 -9.25 C 0.9375 -10.550781 1.160156 -11.773438 1.609375 -12.921875 C 2.054688 -14.066406 2.691406 -15.078125 3.515625 -15.953125 C 4.347656 -16.835938 5.34375 -17.53125 6.5 -18.03125 C 7.65625 -18.53125 8.945312 -18.78125 10.375 -18.78125 C 11.789062 -18.78125 13.078125 -18.53125 14.234375 -18.03125 C 15.390625 -17.53125 16.378906 -16.835938 17.203125 -15.953125 C 18.035156 -15.078125 18.675781 -14.066406 19.125 -12.921875 C 19.570312 -11.773438 19.796875 -10.550781 19.796875 -9.25 C 19.796875 -7.945312 19.570312 -6.710938 19.125 -5.546875 C 18.675781 -4.390625 18.035156 -3.367188 17.203125 -2.484375 C 16.378906 -1.597656 15.390625 -0.898438 14.234375 -0.390625 C 13.078125 0.117188 11.789062 0.375 10.375 0.375 Z M 10.375 -3.5 C 11.21875 -3.5 11.941406 -3.65625 12.546875 -3.96875 C 13.160156 -4.28125 13.65625 -4.703125 14.03125 -5.234375 C 14.40625 -5.773438 14.679688 -6.390625 14.859375 -7.078125 C 15.035156 -7.773438 15.125 -8.5 15.125 -9.25 C 15.125 -10.007812 15.035156 -10.722656 14.859375 -11.390625 C 14.679688 -12.066406 14.40625 -12.671875 14.03125 -13.203125 C 13.65625 -13.734375 13.160156 -14.148438 12.546875 -14.453125 C 11.941406 -14.753906 11.21875 -14.90625 10.375 -14.90625 C 9.238281 -14.90625 8.320312 -14.640625 7.625 -14.109375 C 6.925781 -13.585938 6.414062 -12.894531 6.09375 -12.03125 C 5.78125 -11.175781 5.625 -10.25 5.625 -9.25 C 5.625 -8.5 5.710938 -7.773438 5.890625 -7.078125 C 6.066406 -6.390625 6.34375 -5.773438 6.71875 -5.234375 C 7.101562 -4.703125 7.59375 -4.28125 8.1875 -3.96875 C 8.789062 -3.65625 9.519531 -3.5 10.375 -3.5 Z M 10.375 -3.5 "/></g></g></g></g></g></g></g></svg>